<svg version="1" xmlns="http://www.w3.org/2000/svg" width="800" height="800" viewBox="0 0 600.000000 600.000000"><path d="M325 243.5V338h36v-76h92v75.8l17.7-.1 17.8-.2v-188l-17.7-.3-17.8-.2v79.6h-92v-79.4l-18-.1-18-.1v94.5zM111.2 203.8c-.1 57-.2 59-4.9 68.7-3.3 6.9-8.9 13.9-9.6 12.1-.5-1.1-1.4-1.2-4.9-.4-4.3 1-18 .4-21.4-.9-1.4-.5-1.6-.3-1 1.3 2.3 6.2 12.5 15.6 20.4 18.8 3.3 1.3 7.2 1.9 13.2 1.9h8.6l-.1 16.4c0 13.9.2 16.3 1.5 16.4.8 0 8.8.2 17.7.2l16.3.2.1-3c0-1.7.1-32.1.2-67.7.1-47.2.5-64.4 1.3-63.5.6.7 10.9 14.7 22.9 31.2 37.2 51.2 34.7 48 38.9 48.3l3.6.3 30.2-40.5 30.3-40.5.5 67.7.5 67.7h35l.3-94.3.2-94.2h-20.7l-20.8.1-29 39.9c-15.9 21.9-29.2 39.7-29.6 39.4-.4-.2-13.7-18.2-29.5-39.9L152.7 150h-41.5v53.8zM112.2 375.9c-.4.3-.7 12.1-.7 26.1v25.5l12.4.1c15.7.1 20.8-1.3 26.7-7.1 5.4-5.4 7.8-12.9 7.1-21.3-1.2-12.3-7.8-20.3-18.7-22.7-4.1-1-25.6-1.4-26.8-.6zm28.5 11.7c6.6 5 8.9 13 5.9 20.9-2.6 6.8-6.2 8.8-16.6 9.3l-8.5.4.1-15.8c.1-8.8.2-16.3.3-16.8.1-.5 3.7-.6 8.1-.4 6 .4 8.8 1 10.7 2.4zM392.9 377.1c-2.2 2.2-2.3 2.9-.7 6.4.8 1.9 1.9 2.5 4.3 2.5 3.8 0 5.5-1.6 5.5-5 0-3.5-1.1-4.8-4.3-5.4-1.9-.3-3.4.1-4.8 1.5zM367.2 381.9c-.8.4-1.3 1.7-1.2 2.7.6 5.4.1 6.4-3.3 6.4-3.1 0-3.3.2-3.3 4 0 3.9.1 4 3.3 4 2.5 0 3.3.4 3.4 1.7 0 1 .1 5.8.2 10.8.3 10.1 1.7 13.4 6.8 15.5 2.8 1.2 12.3 1 13.5-.3.3-.3.1-2.2-.6-4.2-1.1-3.3-1.5-3.6-4-3.2-5.2 1.1-6.4-1-6.4-10.9l-.1-8.9 5-.5c5-.5 5-.5 5.3-4.2l.3-3.7-5.3-.3-5.3-.3.1-4.8.1-4.7h-3.6c-2 0-4.2.4-4.9.9zM480 389.3c-1.4 1.7-2.1 1.8-6 1-7.1-1.4-12.5.1-17.5 5.1-3.6 3.6-4.4 5.2-5 9.5-1.8 12.9 5.6 21.8 18.1 22 5 .1 8.2 2.5 9 6.7.5 2.6.1 3.5-2.7 5.8-2.8 2.4-3.9 2.7-7.3 2.2-4.6-.8-6.4-2.1-7.7-5.3-.7-1.9-1.6-2.3-5.4-2.3-4.9 0-5.3.7-3.4 5.7 3.6 9.7 17.3 13.7 27.9 8.3 8.7-4.4 10.9-16.3 4.2-23.3-2.4-2.5-2.5-3-1.1-4 4.8-3.6 6.5-13.6 3.4-20.2-1.6-3.3-1.6-3.7-.1-5.4 2.3-2.5 2-3.3-1.7-5.7-3.2-2.1-3.2-2.1-4.7-.1zm-6.6 10.1c4 1.7 6.1 6.2 5.3 11.2-1 5.8-7 9.1-12.5 6.8-7.7-3.2-7.5-15.2.3-18.5 2.8-1.1 3.1-1.1 6.9.5zM174.5 391.4c-6.9 3.4-10.5 8.7-10.9 16.4-.8 13.1 8.3 21.7 21.9 20.6 4.5-.3 13.5-3.8 13.5-5.2 0-.4-1.1-1.9-2.4-3.5-2.3-2.6-2.4-2.7-5.9-1.2-6.1 2.5-11.4 2-14.9-1.5-1.7-1.7-2.8-3.3-2.6-3.6.3-.2 6.8-.6 14.4-.7l13.9-.2-.1-4.8c-.3-11-6.2-17-17.3-17.4-4.3-.2-7.7.2-9.6 1.1zm13.4 7.9c1.3.6 3.1 2.2 3.9 3.4l1.4 2.3h-10.1c-9.8 0-10.1-.1-9.1-2 2.3-4.3 9.2-6.1 13.9-3.7zM217.7 391.4c-7.5 2.7-10.9 7.9-11.3 17.1-.3 7 1.4 11.8 5.7 15.6 5.6 5 15.9 6 23.2 2.3 3.9-2.1 4.2-3.8 1.2-6.8-2.5-2.5-2.7-2.5-5.6-1-3.2 1.6-9.2 1.2-11.6-.8-2.5-2-4.1-6.2-3.8-9.8.6-6.8 9.7-11.4 15.5-7.8 1.7 1.1 2.4.8 4.9-1.6 1.7-1.6 2.8-3.3 2.5-3.8-.3-.4-2.3-1.7-4.4-2.8-4.5-2.3-10.8-2.5-16.3-.6zM254.6 391.5c-5.2 1.8-9.4 6.1-10.7 11-4.8 17.2 7 29.2 24.8 25 3-.7 8.1-5.2 10-8.9 2-3.8 2.5-11.6 1.1-15.9-1.3-3.8-5.2-8.3-9.2-10.4-4-2.1-11.4-2.5-16-.8zm13.2 9.8c4.7 5 4.5 12.8-.4 16.6-7.2 5.6-16.6-1.1-15.1-10.7 1.2-7.5 10.6-11.1 15.5-5.9zM301 390.7c-.8.3-2.2 1.2-3.1 2-1.4 1.2-1.7 1.2-2.2-.2-.9-2.3-8.7-2.1-8.8.2 0 1.9 0 15.4.1 27.9v7.1l4.3-.1 4.2-.1.5-11.7c.4-10.2.8-12 2.6-13.8 2.8-2.8 7.9-3.6 10.8-1.6 2.2 1.4 2.4 1.3 4-2 2.1-4.6 2-5.9-.6-7.1-2.7-1.1-9.6-1.5-11.8-.6zM327.5 391.8c-8.1 3.8-11.6 11.3-10.1 21.9 1.7 12.3 16.3 19 27 12.4 3.3-2.1 3.4-2.1 3.9-.1.4 1.5 1.3 1.9 4.3 1.7l3.9-.2.2-18.3.2-18.3-4.7.3c-4 .3-4.6.6-4.4 2.2.3 1.7.1 1.6-2.9-.5-4.4-3.1-12.1-3.6-17.4-1.1zm16.1 9.3c9.7 9.1-1.2 24-12.7 17.2-6.6-3.9-5.8-15.7 1.3-18.7 4.2-1.8 8.5-1.3 11.4 1.5zM394.3 390.8c-2.3.3-2.3.4-2.3 18.7v18.3l4.8-.2 4.7-.1v-36.3l-2.5-.4c-1.4-.2-3.5-.2-4.7 0zM409 409.1v18.6l4.5.1c2.9.1 4.5-.3 4.6-1.1.1-.7.1-5 .1-9.7-.1-4.7.4-9.9.9-11.7 2.7-8.4 14.9-8.4 16.5.1.3 1.9.7 7.6.7 12.7l.2 9.4h9l-.1-12.6c-.1-11.3-.4-13.1-2.5-16.8-4.2-7.6-13.6-9.9-21.4-5.2-3.2 1.9-4 1.7-3.7-1.1.1-.3-1.9-.8-4.3-1l-4.5-.3v18.6z"/></svg>