<svg xmlns="http://www.w3.org/2000/svg" id="Layer_1" x="0" y="0" version="1.1" viewBox="0 0 702 503.3" xml:space="preserve"><defs/><linearGradient id="SVGID_1_" x1="238.8" x2="238.8" y1="315.3" y2="1.9" gradientUnits="userSpaceOnUse"><stop offset="0" stop-color="#4c4c4c"/><stop offset="1" stop-color="#303030"/></linearGradient><path fill="url(#SVGID_1_)" d="M345.6 87.8L243.5 223.9h-11.6L132 87.4v227.9H72.9V1.9H141l98 134.7L337.1 1.9h67.6v313.4h-59.1V87.8z"/><linearGradient id="SVGID_2_" x1="213" x2="268.4" y1="291.9" y2="-22.2" gradientUnits="userSpaceOnUse"><stop offset="0" stop-color="#73aeef"/><stop offset="1" stop-color="#5599f2"/></linearGradient><path fill="url(#SVGID_2_)" d="M345.6 87.8L243.5 223.9h-11.6L132 87.4v101.3c3.1 57.4-59.1 70.3-59.1 70.3l-46.6-18s5.4 2.7 20.5-10.5a83.7 83.7 0 0026.1-61V1.9H141l98 134.7L337.1 1.9h67.6v313.4h-59.1V87.8z"/><linearGradient id="SVGID_3_" x1="596" x2="534.2" y1="332.9" y2="-17.5" gradientUnits="userSpaceOnUse"><stop offset="0" stop-color="#4c4c4c"/><stop offset="1" stop-color="#303030"/></linearGradient><path fill="url(#SVGID_3_)" d="M642.3 314.4V187.7h-154v126.7h-59.1V1h59.1v132.1h154V1H701v313.4h-58.7z"/><linearGradient id="SVGID_4_" x1="1" x2="96.9" y1="242.1" y2="242.1" gradientUnits="userSpaceOnUse"><stop offset="0" stop-color="#295d96"/><stop offset="1" stop-color="#1d4568"/></linearGradient><path fill="url(#SVGID_4_)" d="M96.9 249.5s-59.6 38.3-95.9-26c30.5 7 45.8.3 45.8.3S55 251 96.9 249.5z"/><linearGradient id="SVGID_5_" x1="591" x2="534.2" y1="304.4" y2="-17.5" gradientUnits="userSpaceOnUse"><stop offset="0" stop-color="#73aeef"/><stop offset="1" stop-color="#5599f2"/></linearGradient><path fill="url(#SVGID_5_)" d="M701 1h-58.7v132.1h-154V1h-59.1v313.4h59.1V187.7h154V225.1c0 1.1.5 2 1.5 2.6l.7.4c2 1.3 3.9 2.9 5.3 4.8 1.3 1.8 1.9 3.9 2 6.2l.4 10.8-.2 7.2-.4 7.2-.5 7.9.2 1.3c.2.5.6.9 1.1 1 .5.1 1-.2 1.3-.6.5-.6.5-1.4.4-2.1l-.5-3-.6-5.2c-.1-1.4-.3-2.7-.3-4.1-.1-2.1.2-4.3.2-6.5v-9c.1-3.6.8-7 2.1-10.3a5.3 5.3 0 012.3-2.8 9.8 9.8 0 015.8-1.3c2.2.1 3.8 1.4 4.1 3.6.2 1.1.2 2.3.2 3.4v3.6c0 .6.4 1.1.9 1.2.5.1.9-.2 1.1-.9l.1-.6.1-3.9c.1-1.4.3-2.7.7-4a4.3 4.3 0 012.8-2.9c.6-.2 1.1-.1 1.5.4.5.7 1.1 1.5 1.4 2.3 1 2.6 1 5.3.6 8l-1.2 5.7c-.3 1.3-.2 2.5.6 3.7.7 1 1.8 1.4 2.8.7 1-.6 1.5-1.6 1.4-2.8l-.8-4.7c-.6-2.6-1.2-5.2-1-7.8a11 11 0 011.3-4.6c.3-.5.6-.5.9-.1.3.5.7 1.1.8 1.7l.6 6.3.2 8.1c.1 6.9 0 13.8-.5 20.7-.3 4.2-.9 8.3-2 12.3-.5 1.7-.9 3.4-.8 5.2a5 5 0 001.4 3.2c1.2 1.2 3 .9 3.9-.5.7-1.3 1-2.7.8-4.1l-1.2-6.9c-.6-3.7-1-7.4-1-11.2l.1-18c0-2.8 0-5.6.2-8.4.1-1.9.3-3.9.6-5.8.1-.8.4-1.6.7-2.4.4-.9 1.3-1 1.9-.2.3.4.5.9.6 1.3l.4 1.9c.2.6.5 1.2 1.3 1.3.5.1 1.2-.6 1.5-1.3l.1-.3.2-1.3c.3-2.1 1.3-3.5 3.5-4 1.6-.3 3.1-.7 4.6-1.2 1.3-.4 2.2-1.3 2.4-2.6V219L701 1z"/><linearGradient id="SVGID_6_" x1="669.8" x2="665.9" y1="301.5" y2="279.2" gradientUnits="userSpaceOnUse"><stop offset="0" stop-color="#73aeef"/><stop offset="1" stop-color="#5599f2"/></linearGradient><path fill="url(#SVGID_6_)" d="M669 289.5l-.5-7.8-.2-2.8h-.3c0 2.1.1 4.3 0 6.4l-.6 8.8-.5 5.2.1 1.2c.1.7.8 1.2 1.5 1.2s1.5-.6 1.5-1.5a42 42 0 00-.3-5c-.1-1.9-.5-3.8-.7-5.7z"/><g><linearGradient id="SVGID_7_" x1="111.5" x2="111.5" y1="464.2" y2="377.9" gradientUnits="userSpaceOnUse"><stop offset="0" stop-color="#4c4c4c"/><stop offset="1" stop-color="#303030"/></linearGradient><path fill="url(#SVGID_7_)" d="M150 420.3c.4 21.8-13 43.9-43.2 43.9H72.9v-86.4h33.9c29.6.1 42.8 21.2 43.2 42.5zm-60.9 28.3h17.8c19.6 0 27.4-14.3 27-28.4-.4-13.4-8.3-26.9-27-26.9H89.1v55.3z"/><linearGradient id="SVGID_8_" x1="191.2" x2="191.2" y1="465.9" y2="401.6" gradientUnits="userSpaceOnUse"><stop offset="0" stop-color="#4c4c4c"/><stop offset="1" stop-color="#303030"/></linearGradient><path fill="url(#SVGID_8_)" d="M175.1 439.2c1 7.5 7.5 13 18.1 13 5.6 0 12.8-2.1 16.3-5.7l9.6 9.5a37.2 37.2 0 01-26.2 9.9c-21 0-33.4-13-33.4-32.5 0-18.5 12.6-31.8 32.3-31.8 20.4 0 33.1 12.6 30.7 37.6h-47.4zm33-12.5c-1-7.9-7.2-11.8-15.8-11.8-8.1 0-14.8 4-17 11.8h32.8z"/><linearGradient id="SVGID_9_" x1="258.5" x2="258.5" y1="466.1" y2="401.7" gradientUnits="userSpaceOnUse"><stop offset="0" stop-color="#4c4c4c"/><stop offset="1" stop-color="#303030"/></linearGradient><path fill="url(#SVGID_9_)" d="M286.4 456.5c-7 6.9-14.4 9.6-23.4 9.6-17.6 0-32.3-10.6-32.3-32.2s14.7-32.2 32.3-32.2c8.6 0 15.3 2.5 22 9l-9.5 10c-3.6-3.2-8-4.8-12.2-4.8-10.1 0-17.5 7.4-17.5 18 0 11.6 7.9 17.8 17.3 17.8 4.8 0 9.6-1.4 13.3-5.1l10 9.9z"/><linearGradient id="SVGID_10_" x1="323.1" x2="323.1" y1="465.6" y2="402.2" gradientUnits="userSpaceOnUse"><stop offset="0" stop-color="#4c4c4c"/><stop offset="1" stop-color="#303030"/></linearGradient><path fill="url(#SVGID_10_)" d="M354.7 433.9c0 17.5-12 31.7-31.7 31.7s-31.6-14.2-31.6-31.7a30.5 30.5 0 0131.5-31.7 30.7 30.7 0 0131.8 31.7zm-48.2 0c0 9.3 5.6 17.9 16.5 17.9 11 0 16.5-8.6 16.5-17.9 0-9.1-6.4-18-16.5-18-10.8 0-16.5 8.9-16.5 18z"/><linearGradient id="SVGID_11_" x1="389" x2="389" y1="464.2" y2="401.8" gradientUnits="userSpaceOnUse"><stop offset="0" stop-color="#4c4c4c"/><stop offset="1" stop-color="#303030"/></linearGradient><path fill="url(#SVGID_11_)" d="M379.1 403.4l1.1 7c4.7-7.5 11-8.6 17.2-8.6 6.3 0 12.3 2.5 15.7 5.8l-6.8 13.1a15 15 0 00-10.9-3.9c-7.9 0-15.2 4.2-15.2 15.4v32.1h-15.1v-60.8h14z"/><linearGradient id="SVGID_12_" x1="448.3" x2="448.3" y1="466.1" y2="401.9" gradientUnits="userSpaceOnUse"><stop offset="0" stop-color="#4c4c4c"/><stop offset="1" stop-color="#303030"/></linearGradient><path fill="url(#SVGID_12_)" d="M466.9 403.4h14.4v60.8h-14.2l-.7-8.9c-3.5 7.2-13 10.6-19.7 10.7-18 .1-31.3-11-31.3-32.3 0-21 13.9-32 31.7-31.8 8.1 0 15.9 3.8 19.4 9.9l.4-8.4zm-36.5 30.4c0 11.6 8 18.5 18 18.5 23.7 0 23.7-36.9 0-36.9-10 0-18 6.8-18 18.4z"/><linearGradient id="SVGID_13_" x1="509.1" x2="509.1" y1="465" y2="386.3" gradientUnits="userSpaceOnUse"><stop offset="0" stop-color="#4c4c4c"/><stop offset="1" stop-color="#303030"/></linearGradient><path fill="url(#SVGID_13_)" d="M512.7 386.3v17.3h16.8v13h-16.9v26.3c0 5.8 3.2 8.6 7.9 8.6 2.3 0 5.1-.7 7.3-1.9l4.2 12.8a33.7 33.7 0 01-12.5 2.6c-13.2.5-21.8-7-21.8-22.2v-26.3h-11.4v-13h11.4v-15.7l15-1.5z"/><linearGradient id="SVGID_14_" x1="548.2" x2="548.2" y1="464.2" y2="377.5" gradientUnits="userSpaceOnUse"><stop offset="0" stop-color="#4c4c4c"/><stop offset="1" stop-color="#303030"/></linearGradient><path fill="url(#SVGID_14_)" d="M557.1 386.3c0 11.7-17.8 11.7-17.8 0 0-11.8 17.8-11.8 17.8 0zm-16.4 16.9v61.1h15.1v-61.1h-15.1z"/><linearGradient id="SVGID_15_" x1="599.1" x2="599.1" y1="464.2" y2="402.4" gradientUnits="userSpaceOnUse"><stop offset="0" stop-color="#4c4c4c"/><stop offset="1" stop-color="#303030"/></linearGradient><path fill="url(#SVGID_15_)" d="M614.1 464.2v-31.8c0-9.3-5.1-16.3-14.7-16.3-9.3 0-15.5 7.8-15.5 17v31.1H569v-61h13.5l1 8.3c6.2-6 12.3-9.1 20-9.1 14.3 0 25.8 10.7 25.8 29.9v32h-15.2z"/><linearGradient id="SVGID_16_" x1="670" x2="670" y1="502.3" y2="397.2" gradientUnits="userSpaceOnUse"><stop offset="0" stop-color="#4c4c4c"/><stop offset="1" stop-color="#303030"/></linearGradient><path fill="url(#SVGID_16_)" d="M689.9 397.2l11.1 8.4-6.8 8.6a26 26 0 016.4 18c0 7.5-2.8 18.1-12.8 22.7 10.1 5.1 12.6 12.3 12.6 20.1 0 16.8-12.8 27.1-30.5 27.1s-30.8-10.7-30.8-27.1H654c0 7.9 7.3 13.1 15.9 13.1 8.6 0 15.4-4.7 15.4-13.1 0-8.4-7.9-12.2-15.4-12.2-19 0-30.8-11.6-30.8-30.6s13.8-30.8 30.8-30.8c4.8 0 9.7.6 13.9 3.5l6.1-7.7zM654 432.3c0 10.6 7.2 16.9 15.9 16.9 8.6 0 15.8-6.4 15.8-16.9 0-10.5-7.2-17.2-15.8-17.2-8.8 0-15.9 6.6-15.9 17.2z"/></g></svg>